HIERARCHY
ROOT root
{
	OFFSET	0	13.1	24.9
	CHANNELS 6  Xposition Yposition Zposition Xrotation Yrotation Zrotation
	JOINT spine_1
	{
		OFFSET	0	9.99999	0
		CHANNELS 3  Xrotation Yrotation Zrotation
		JOINT spine_2
		{
			OFFSET	0	112	-10
			CHANNELS 3  Xrotation Yrotation Zrotation
			JOINT spine_3
			{
				OFFSET	0	206.5	19.3
				CHANNELS 3  Xrotation Yrotation Zrotation
				JOINT spine_4
				{
					OFFSET	0	110.4	14.6
					CHANNELS 3  Xrotation Yrotation Zrotation
					JOINT neck_1
					{
						OFFSET	0	71.8	-50.3
						CHANNELS 3  Xrotation Yrotation Zrotation
						JOINT neck_2
						{
							OFFSET	0	86.2	-25.8
							CHANNELS 3  Xrotation Yrotation Zrotation
							JOINT head_ee
							{
								OFFSET	0	179.8	-8.7
								CHANNELS 3  Xrotation Yrotation Zrotation
								End Site
								{
									OFFSET	1	0	0
								}
							}
						}
					}
					JOINT left_clavicle
					{
						OFFSET	-43.2	22.4	-70.8
						CHANNELS 3  Xrotation Yrotation Zrotation
						JOINT left_shoulder
						{
							OFFSET	-93.9	-5.79999	48.7
							CHANNELS 3  Xrotation Yrotation Zrotation
							JOINT left_elbow
							{
								OFFSET	-291.4	-30.8	15.2
								CHANNELS 3  Xrotation Yrotation Zrotation
								JOINT left_lowarm_twist
								{
									OFFSET	-110.7	-3.89999	13.6
									CHANNELS 3  Xrotation Yrotation Zrotation
									JOINT left_hand
									{
										OFFSET	-110.7	-3.89999	13.6
										CHANNELS 3  Xrotation Yrotation Zrotation
										JOINT left_ee
										{
											OFFSET	-80.8	-5.10001	12.1
											CHANNELS 3  Xrotation Yrotation Zrotation
											End Site
											{
												OFFSET	1	0	0
											}
										}
									}
								}
							}
						}
					}
					JOINT right_clavicle
					{
						OFFSET	43.2	22.4	-70.8
						CHANNELS 3  Xrotation Yrotation Zrotation
						JOINT right_shoulder
						{
							OFFSET	93.9	-5.79999	48.7
							CHANNELS 3  Xrotation Yrotation Zrotation
							JOINT right_elbow
							{
								OFFSET	291.4	-30.8	15.2
								CHANNELS 3  Xrotation Yrotation Zrotation
								JOINT right_lowarm_twist
								{
									OFFSET	110.7	-3.89999	13.6
									CHANNELS 3  Xrotation Yrotation Zrotation
									JOINT right_hand
									{
										OFFSET	110.7	-3.89999	13.6
										CHANNELS 3  Xrotation Yrotation Zrotation
										JOINT right_ee
										{
											OFFSET	80.8	-5.10001	12.1
											CHANNELS 3  Xrotation Yrotation Zrotation
											End Site
											{
												OFFSET	1	0	0
											}
										}
									}
								}
							}
						}
					}
				}
			}
		}
	}
	JOINT left_hip
	{
		OFFSET	-82.8	-127.5	0.300001
		CHANNELS 3  Xrotation Yrotation Zrotation
		JOINT left_knee
		{
			OFFSET	-28.2	-396.7	2.2
			CHANNELS 3  Xrotation Yrotation Zrotation
			JOINT left_ankle
			{
				OFFSET	-11.7	-411.3	35.4
				CHANNELS 3  Xrotation Yrotation Zrotation
				JOINT left_toes
				{
					OFFSET	0	-60	-88.6
					CHANNELS 3  Xrotation Yrotation Zrotation
					JOINT left_foot_ee
					{
						OFFSET	-22.5	-16.5	-42.2
						CHANNELS 3  Xrotation Yrotation Zrotation
						End Site
						{
							OFFSET	1	0	0
						}
					}
				}
			}
		}
	}
	JOINT right_hip
	{
		OFFSET	82.8	-127.5	0.300001
		CHANNELS 3  Xrotation Yrotation Zrotation
		JOINT right_knee
		{
			OFFSET	28.2	-396.7	2.2
			CHANNELS 3  Xrotation Yrotation Zrotation
			JOINT right_ankle
			{
				OFFSET	11.7	-411.3	35.4
				CHANNELS 3  Xrotation Yrotation Zrotation
				JOINT right_toes
				{
					OFFSET	0	-60	-88.6
					CHANNELS 3  Xrotation Yrotation Zrotation
					JOINT right_foot_ee
					{
						OFFSET	22.5	-16.5	-42.2
						CHANNELS 3  Xrotation Yrotation Zrotation
						End Site
						{
							OFFSET	1	0	0
						}
					}
				}
			}
		}
	}
}
MOTION
Frames: 16
Frame Time: 0.02
3504.4382381 710.644 -1527.33900969 -15.0253775137 72.3363445259 10.6596739567 1.3767 0.896862 2.22993 1.37915 0.753186 2.28244 1.40996 0.315775 2.38262 1.4027 0.688003 2.30292 -6.16021 14.6713 3.53583 -6.08899 24.6077 6.35661 -0.0 0.0 -0.0 -2.10217 25.8276 0.242588 -7.06984 -10.7283 68.9597 1.90748 -43.373 0.758616 69.8446 -2.72426 -7.93701 -3.18746 24.9956 -8.10913 -0.0 0.0 -0.0 11.2672 -6.97745 -21.6468 0.0387151 14.828 -76.8049 0.45271 12.6402 -0.0501405 -20.825 1.17888 -2.37295 3.28807 -25.5715 -30.1759 0.0 0.0 0.0 3.54867 26.009 -7.49086 -9.23241 0.268626 1.38989 37.1712 -24.9127 -5.32203 37.2643 -0.0 -0.0 -0.0 0.0 -0.0 -3.54391 6.95617 3.28151 -17.26 -0.318194 -2.61959 40.1567 -2.00876 4.87768 2.03002 -0.0 -0.0 0.0 0.0 0.0 
3486.29618932 707.638 -1526.23770808 -26.6523890419 78.0480035998 22.1899972804 1.40478 0.978001 2.40268 1.40761 0.823178 2.46 1.44387 0.353144 2.56986 1.43545 0.754449 2.48193 -5.04461 14.7521 3.12365 -4.90631 24.8502 5.7354 -0.0 0.0 -0.0 -1.86424 25.7411 0.537453 -9.73607 -10.3695 67.5183 1.85916 -42.64 0.725658 69.3506 -2.67326 -7.89936 -3.19753 25.1328 -8.08827 -0.0 0.0 -0.0 11.5268 -6.91219 -22.1716 1.84872 15.3567 -77.7803 0.518905 14.416 -0.065627 -20.8754 1.18274 -2.37811 3.33039 -24.821 -30.3272 0.0 0.0 0.0 8.28514 24.3572 -8.68957 -15.2402 0.321956 2.30975 37.7417 -23.281 -5.29426 40.1395 -0.0 -0.0 -0.0 0.0 -0.0 -3.81811 6.04329 3.03847 -17.1493 -0.318683 -2.60262 40.8651 -1.72348 4.93915 3.71941 -0.0 -0.0 0.0 0.0 0.0 
3466.52319898 709.829 -1513.2680115 -103.303780479 83.0493658888 99.1303891611 1.67078 1.01613 2.30086 1.67331 0.867704 2.36081 1.70972 0.426825 2.47868 1.70206 0.812819 2.38025 -5.08617 15.5145 4.88102 -4.92177 24.9594 7.64973 -0.0 0.0 -0.0 -2.81294 24.6286 -0.913337 -16.4454 -9.27245 68.6795 1.66818 -39.566 0.600059 68.677 -2.60426 -7.84733 -3.2668 25.2214 -8.4318 -0.0 0.0 -0.0 11.781 -6.97695 -22.6722 3.89349 16.1172 -78.1103 0.689311 18.8533 -0.114445 -20.4562 1.15068 -2.33504 2.95364 -20.6553 -26.8842 0.0 0.0 0.0 14.0072 20.5146 -9.29319 -23.2662 0.242573 3.53767 34.9633 -20.2985 -4.88051 40.178 -0.0 -0.0 -0.0 0.0 -0.0 -4.20776 2.13675 2.92289 -14.0985 -0.31925 -2.13459 40.6119 0.997818 4.93613 2.86548 -0.0 -0.0 0.0 0.0 0.0 
3451.93584211 707.846 -1502.54988976 -132.344488558 80.1248324106 128.877136152 1.83909 1.1253 2.07296 1.84094 0.991146 2.14033 1.87851 0.594883 2.28238 1.87249 0.947794 2.15987 -5.21208 16.0191 5.36002 -5.03889 25.5674 8.24366 -0.0 0.0 -0.0 -2.96974 24.8096 -1.08754 -18.6238 -7.40471 69.0841 1.5782 -38.0152 0.543682 67.687 -2.50396 -7.76939 -3.46694 26.3342 -8.91468 -0.0 0.0 -0.0 11.9634 -6.96541 -23.0403 5.13143 16.5056 -78.7095 0.753627 20.4718 -0.136089 -19.9975 1.11596 -2.28764 3.0161 -16.6095 -26.2675 0.0 0.0 0.0 17.7046 18.0057 -10.1881 -29.2912 0.0705615 4.44589 34.7699 -16.0122 -4.70433 40.1615 -0.0 -0.0 -0.0 0.0 -0.0 -4.62581 -0.0289022 2.94202 -13.4807 -0.316331 -2.03985 40.1924 2.57278 4.91627 2.87098 -0.0 -0.0 0.0 0.0 0.0 
3440.03450162 713.467 -1491.18884034 -146.846696751 76.9870561455 143.813268028 1.88172 1.23895 1.97192 1.8832 1.11098 2.04673 1.92345 0.731265 2.21097 1.91823 1.0712 2.06782 -6.9989 15.3725 4.66702 -6.95974 25.2638 7.79074 -0.0 0.0 -0.0 -2.49845 25.2159 -0.384768 -20.8281 -6.93653 68.6969 1.30469 -32.8733 0.384914 66.8605 -2.42127 -7.70302 -3.40757 25.6875 -8.96059 -0.0 0.0 -0.0 12.184 -6.72928 -23.5182 5.96592 15.8926 -78.6981 0.860643 23.0901 -0.175808 -20.1038 1.12398 -2.29866 2.59421 -18.2067 -23.8248 0.0 0.0 0.0 21.2271 17.2038 -10.1055 -28.7448 0.0900934 4.36431 31.3815 -13.3579 -4.27367 38.626 -0.0 -0.0 -0.0 0.0 -0.0 -5.52285 -1.49524 2.62696 -13.064 -0.313785 -1.97596 39.6734 2.44691 4.87022 1.25201 -0.0 -0.0 0.0 0.0 0.0 
3431.24550254 715.597 -1480.82495509 -152.718006742 74.9857213602 149.418972663 1.93215 1.26249 1.93816 1.93352 1.13663 2.01453 1.97403 0.764146 2.18314 1.96906 1.09927 2.03515 -8.75689 15.0244 5.05441 -8.81899 24.6919 8.45806 -0.0 0.0 -0.0 -2.10621 24.4426 -5.69729e-05 -22.7374 -6.26749 69.1818 0.992675 -26.1848 0.230869 65.4933 -2.28663 -7.59064 -3.60052 25.7425 -10.0241 -0.0 0.0 -0.0 12.3376 -6.37727 -23.8789 7.59939 16.1269 -78.8021 0.924408 24.6038 -0.20159 -20.2508 1.13509 -2.31385 2.45423 -17.443 -22.672 0.0 0.0 0.0 24.3718 15.9123 -10.2211 -29.3891 0.0669811 4.46048 27.5967 -11.9652 -3.81908 37.4891 -0.0 -0.0 -0.0 0.0 -0.0 -6.79391 -2.5456 3.0093 -11.9304 -0.30451 -1.80229 38.6099 1.15604 4.7639 1.9697 -0.0 -0.0 0.0 0.0 0.0 
3426.35502562 717.482 -1473.14451555 -156.205793529 72.2379318414 152.947458266 1.88643 0.927685 1.83028 1.88793 0.809361 1.88558 1.91492 0.462395 1.99913 1.91018 0.772262 1.90107 -9.91924 14.6501 5.63935 -10.0237 23.8141 9.16817 -0.0 0.0 -0.0 -1.71189 24.1935 0.488923 -24.012 -4.76885 69.9628 0.726183 -19.7852 0.126644 64.8004 -2.21943 -7.53247 -3.73789 26.6681 -10.2389 -0.0 0.0 -0.0 12.4642 -6.2924 -24.15 9.52978 16.3361 -79.0816 1.10456 28.6852 -0.282433 -20.0902 1.12295 -2.29724 2.13253 -16.4354 -20.2362 0.0 0.0 0.0 27.0326 16.9911 -9.64459 -25.8271 0.181148 3.92584 21.7938 -10.8689 -3.09881 35.2713 -0.0 -0.0 -0.0 0.0 -0.0 -7.04266 -3.13783 2.95734 -12.2028 -0.307052 -1.844 35.3757 4.15732 4.49841 2.61132 -0.0 -0.0 0.0 0.0 0.0 
3427.55468195 716.772 -1469.37618321 -155.202872201 72.1199060802 152.030167473 1.94207 0.859075 1.63987 1.94325 0.753001 1.69119 1.96575 0.442923 1.79746 1.96197 0.7212 1.70499 -12.9307 13.3874 5.94437 -13.1428 21.7692 9.70253 -0.0 0.0 -0.0 -1.38113 24.2908 0.949137 -24.0663 -2.93814 70.6364 0.515111 -14.3149 0.0646857 64.5018 -2.19069 -7.50716 -4.39509 27.6673 -13.3033 -0.0 0.0 -0.0 12.2784 -3.88225 -24.0705 11.3358 16.315 -79.2199 1.24378 31.6372 -0.352403 -19.6528 1.09012 -2.25185 2.0452 -12.2681 -18.3189 0.0 0.0 0.0 29.2315 16.3595 -8.43387 -22.3018 0.261198 3.39085 15.594 -9.38903 -2.26767 32.2883 -0.0 -0.0 -0.0 0.0 -0.0 -7.31104 -3.59411 2.99082 -10.0755 -0.281925 -1.51858 33.7078 3.29418 4.32433 1.18699 -0.0 -0.0 0.0 0.0 0.0 
3422.28088942 717.902 -1467.03315451 -155.892207578 70.3836947085 153.113538507 2.02462 0.707306 1.49372 2.02565 0.610834 1.53569 2.04219 0.332498 1.61891 2.03901 0.583971 1.5461 -11.5151 13.1973 6.80004 -11.5975 20.599 10.1778 -0.0 0.0 -0.0 -1.3814 23.7297 0.864768 -23.4672 -2.10092 71.024 0.343536 -9.65812 0.0290231 63.6119 -2.10583 -7.43084 -4.95497 28.887 -15.6112 -0.0 0.0 -0.0 12.0888 -3.9659 -23.6655 12.8029 16.4879 -79.4206 1.33537 33.4832 -0.401705 -19.3653 1.06874 -2.22187 1.70405 -11.1887 -15.6738 0.0 0.0 0.0 31.1131 15.763 -8.3891 -20.0774 0.294711 3.0512 13.0375 -12.9388 -1.95801 28.6946 -0.0 -0.0 -0.0 0.0 -0.0 -7.27382 -5.42739 2.58126 -10.517 -0.288134 -1.58604 33.806 4.66082 4.35166 -2.10866 0.0 0.0 0.0 0.0 0.0 
3422.25245157 717.902 -1467.61750358 -155.637362549 70.5843479263 152.843160247 2.02462 0.707306 1.49372 2.02565 0.610834 1.53569 2.04219 0.332498 1.61891 2.03901 0.583971 1.5461 -11.5151 13.1973 6.80004 -11.5975 20.599 10.1778 -0.0 0.0 -0.0 -1.3814 23.7297 0.864768 -23.4672 -2.10092 71.024 0.343536 -9.65812 0.0290231 63.6119 -2.10583 -7.43084 -4.95497 28.887 -15.6112 -0.0 0.0 -0.0 12.0888 -3.9659 -23.6655 12.8029 16.4879 -79.4206 1.33537 33.4832 -0.401705 -19.3653 1.06874 -2.22187 1.70405 -11.1887 -15.6738 0.0 0.0 0.0 31.1131 15.763 -8.3891 -20.0774 0.294711 3.0512 13.0375 -12.9388 -1.95801 28.6946 -0.0 -0.0 -0.0 0.0 -0.0 -7.27382 -5.42739 2.58126 -10.517 -0.288134 -1.58604 33.806 4.66082 4.35166 -2.10866 0.0 0.0 0.0 0.0 0.0 
3422.26368026 717.902 -1467.38120661 -155.741055308 70.503261435 152.953132802 2.02462 0.707306 1.49372 2.02565 0.610834 1.53569 2.04219 0.332498 1.61891 2.03901 0.583971 1.5461 -11.5151 13.1973 6.80004 -11.5975 20.599 10.1778 -0.0 0.0 -0.0 -1.3814 23.7297 0.864768 -23.4672 -2.10092 71.024 0.343536 -9.65812 0.0290231 63.6119 -2.10583 -7.43084 -4.95497 28.887 -15.6112 -0.0 0.0 -0.0 12.0888 -3.9659 -23.6655 12.8029 16.4879 -79.4206 1.33537 33.4832 -0.401705 -19.3653 1.06874 -2.22187 1.70405 -11.1887 -15.6738 0.0 0.0 0.0 31.1131 15.763 -8.3891 -20.0774 0.294711 3.0512 13.0375 -12.9388 -1.95801 28.6946 -0.0 -0.0 -0.0 0.0 -0.0 -7.27382 -5.42739 2.58126 -10.517 -0.288134 -1.58604 33.806 4.66082 4.35166 -2.10866 0.0 0.0 0.0 0.0 0.0 
3416.96566226 713.74 -1464.66753874 -157.938321775 69.0630953568 155.549843773 1.972 0.605308 1.28535 1.97276 0.522299 1.32125 1.98494 0.281448 1.39257 1.98258 0.497828 1.33067 -12.9582 11.5162 8.11637 -12.9523 16.8366 11.1545 -0.0 0.0 -0.0 -0.978164 23.325 1.35754 -23.8545 -1.67201 70.3178 0.252054 -7.1173 0.0156753 62.6427 -2.01477 -7.34624 -5.56414 28.9801 -19.0168 -0.0 0.0 -0.0 11.6837 -2.83998 -22.9401 15.6321 16.769 -79.8184 1.36868 34.1355 -0.420235 -17.7548 0.951761 -2.05204 1.57771 -8.31171 -13.8004 0.0 0.0 0.0 34.4527 15.8686 -7.72264 -12.673 0.310974 1.91605 6.70612 -11.422 -1.02219 19.5323 -0.0 -0.0 -0.0 0.0 -0.0 -7.85264 -5.96918 2.67843 -11.8089 -0.303311 -1.78368 33.5281 5.47192 4.33554 -1.70947 0.0 0.0 0.0 0.0 0.0 
3413.23365407 714.457 -1463.86752862 -157.194164709 68.2130121564 154.969545381 1.96884 0.58291 1.20276 1.96951 0.5052 1.23741 1.98054 0.279274 1.30705 1.97848 0.482178 1.24656 -14.3135 9.48867 7.26897 -14.309 13.7315 9.90769 -0.0 0.0 -0.0 -0.700377 22.684 1.65534 -23.2879 -1.36151 69.6697 0.203045 -5.74377 0.0101859 62.3746 -1.98983 -7.32257 -6.27232 29.3201 -22.8864 -0.0 0.0 -0.0 11.4657 -2.04823 -22.5582 17.207 16.8715 -80.0561 1.4201 35.1234 -0.449457 -16.7302 0.879845 -1.94232 1.59505 -4.24912 -12.3892 0.0 0.0 0.0 37.0867 15.6126 -7.49599 -11.3211 0.298104 1.70901 1.93915 -11.975 -0.30113 13.1179 -0.0 -0.0 -0.0 0.0 -0.0 -7.15607 -5.68007 2.88846 -11.6491 -0.301675 -1.75921 34.9339 8.59982 4.52901 -4.31752 0.0 0.0 0.0 0.0 0.0 
3407.35655962 716.895 -1461.95440652 -155.138176098 67.104080432 153.258665766 2.08046 0.701446 1.2151 2.08107 0.622711 1.25726 2.09488 0.394172 1.3465 2.09285 0.601864 1.26737 -14.8334 8.17649 7.01245 -14.8013 11.4567 9.29685 -0.0 0.0 -0.0 -0.560355 22.94 1.8823 -23.7844 -0.979381 69.0243 0.207854 -5.87887 0.0106729 62.025 -1.95749 -7.29153 -6.83534 29.6852 -25.9545 -0.0 0.0 -0.0 11.3518 -0.929281 -22.4112 18.2519 16.7213 -79.9342 1.44514 35.5959 -0.463947 -15.9825 0.828621 -1.86147 1.61805 -0.975243 -11.264 0.0 0.0 0.0 38.8818 15.5821 -7.17126 -7.73274 0.240294 1.16152 -0.124223 -14.0578 0.0196796 7.30311 -0.0 -0.0 -0.0 0.0 -0.0 -6.48353 -6.69495 2.04947 -11.3143 -0.298027 -1.70797 36.9008 11.1037 4.77315 -6.22295 0.0 0.0 0.0 0.0 0.0 
3407.28629399 716.895 -1462.90911956 -154.807882868 67.4007028046 152.90051587 2.08046 0.701446 1.2151 2.08107 0.622711 1.25726 2.09488 0.394172 1.3465 2.09285 0.601864 1.26737 -14.8334 8.17649 7.01245 -14.8013 11.4567 9.29685 -0.0 0.0 -0.0 -0.560355 22.94 1.8823 -23.7844 -0.979381 69.0243 0.207854 -5.87887 0.0106729 62.025 -1.95749 -7.29153 -6.83534 29.6852 -25.9545 -0.0 0.0 -0.0 11.3518 -0.929281 -22.4112 18.2519 16.7213 -79.9342 1.44514 35.5959 -0.463947 -15.9825 0.828621 -1.86147 1.61805 -0.975243 -11.264 0.0 0.0 0.0 38.8818 15.5821 -7.17126 -7.73274 0.240294 1.16152 -0.124223 -14.0578 0.0196796 7.30311 -0.0 -0.0 -0.0 0.0 -0.0 -6.48353 -6.69495 2.04947 -11.3143 -0.298027 -1.70797 36.9008 11.1037 4.77315 -6.22295 0.0 0.0 0.0 0.0 0.0 
3407.27107365 716.895 -1463.12632304 -154.731508359 67.4680567527 152.817809424 2.08046 0.701446 1.2151 2.08107 0.622711 1.25726 2.09488 0.394172 1.3465 2.09285 0.601864 1.26737 -14.8334 8.17649 7.01245 -14.8013 11.4567 9.29685 -0.0 0.0 -0.0 -0.560355 22.94 1.8823 -23.7844 -0.979381 69.0243 0.207854 -5.87887 0.0106729 62.025 -1.95749 -7.29153 -6.83534 29.6852 -25.9545 -0.0 0.0 -0.0 11.3518 -0.929281 -22.4112 18.2519 16.7213 -79.9342 1.44514 35.5959 -0.463947 -15.9825 0.828621 -1.86147 1.61805 -0.975243 -11.264 0.0 0.0 0.0 38.8818 15.5821 -7.17126 -7.73274 0.240294 1.16152 -0.124223 -14.0578 0.0196796 7.30311 -0.0 -0.0 -0.0 0.0 -0.0 -6.48353 -6.69495 2.04947 -11.3143 -0.298027 -1.70797 36.9008 11.1037 4.77315 -6.22295 0.0 0.0 0.0 0.0 0.0 
